<svg width="13" height="15" viewBox="0 0 13 15" fill="none" xmlns="http://www.w3.org/2000/svg">
<mask id="path-1-inside-1_403_7123" fill="white">
<path fill-rule="evenodd" clip-rule="evenodd" d="M9.75415 5.29413H2.31383C1.85306 5.29413 1.46987 5.64867 1.43414 6.10806L0.885117 13.1669C0.845238 13.6796 1.25054 14.1177 1.76481 14.1177H10.3032C10.8175 14.1177 11.2227 13.6796 11.1829 13.1669L10.6339 6.10806C10.5981 5.64867 10.2149 5.29413 9.75415 5.29413ZM2.31383 4.41177C1.39229 4.41177 0.6259 5.12086 0.55444 6.03964L0.00542052 13.0985C-0.0743373 14.1239 0.736259 15 1.76481 15H10.3032C11.3317 15 12.1423 14.1239 12.0626 13.0985L11.5135 6.03964C11.4421 5.12087 10.6757 4.41177 9.75415 4.41177H2.31383Z"/>
</mask>
<path fill-rule="evenodd" clip-rule="evenodd" d="M9.75415 5.29413H2.31383C1.85306 5.29413 1.46987 5.64867 1.43414 6.10806L0.885117 13.1669C0.845238 13.6796 1.25054 14.1177 1.76481 14.1177H10.3032C10.8175 14.1177 11.2227 13.6796 11.1829 13.1669L10.6339 6.10806C10.5981 5.64867 10.2149 5.29413 9.75415 5.29413ZM2.31383 4.41177C1.39229 4.41177 0.6259 5.12086 0.55444 6.03964L0.00542052 13.0985C-0.0743373 14.1239 0.736259 15 1.76481 15H10.3032C11.3317 15 12.1423 14.1239 12.0626 13.0985L11.5135 6.03964C11.4421 5.12087 10.6757 4.41177 9.75415 4.41177H2.31383Z" fill="#1C2A39"/>
<path d="M1.43414 6.10806L0.437148 6.03051L0.437148 6.03051L1.43414 6.10806ZM0.885117 13.1669L-0.111872 13.0893L-0.111872 13.0893L0.885117 13.1669ZM11.1829 13.1669L10.1859 13.2444L10.1859 13.2444L11.1829 13.1669ZM10.6339 6.10806L9.63686 6.1856L9.63686 6.1856L10.6339 6.10806ZM0.55444 6.03964L-0.442549 5.96209L-0.442549 5.96209L0.55444 6.03964ZM0.00542052 13.0985L1.00241 13.176L0.00542052 13.0985ZM12.0626 13.0985L11.0656 13.176L11.0656 13.176L12.0626 13.0985ZM11.5135 6.03964L10.5166 6.11718L10.5166 6.11718L11.5135 6.03964ZM2.31383 6.29413H9.75415V4.29413H2.31383V6.29413ZM2.43113 6.1856C2.42636 6.24685 2.37527 6.29413 2.31383 6.29413V4.29413C1.33085 4.29413 0.513372 5.05049 0.437148 6.03051L2.43113 6.1856ZM1.88211 13.2444L2.43113 6.1856L0.437148 6.03051L-0.111872 13.0893L1.88211 13.2444ZM1.76481 13.1177C1.83338 13.1177 1.88742 13.1761 1.88211 13.2444L-0.111872 13.0893C-0.196947 14.1832 0.667689 15.1177 1.76481 15.1177V13.1177ZM10.3032 13.1177H1.76481V15.1177H10.3032V13.1177ZM10.1859 13.2444C10.1806 13.1761 10.2346 13.1177 10.3032 13.1177V15.1177C11.4003 15.1177 12.2649 14.1832 12.1799 13.0893L10.1859 13.2444ZM9.63686 6.1856L10.1859 13.2444L12.1799 13.0893L11.6308 6.03052L9.63686 6.1856ZM9.75415 6.29413C9.69272 6.29413 9.64163 6.24685 9.63686 6.1856L11.6308 6.03052C11.5546 5.05049 10.7371 4.29413 9.75415 4.29413V6.29413ZM1.55143 6.11718C1.5824 5.71905 1.91449 5.41177 2.31383 5.41177V3.41177C0.870077 3.41177 -0.330595 4.52268 -0.442549 5.96209L1.55143 6.11718ZM1.00241 13.176L1.55143 6.11718L-0.442549 5.96209L-0.991568 13.0209L1.00241 13.176ZM1.76481 14C1.31911 14 0.967848 13.6204 1.00241 13.176L-0.991568 13.0209C-1.11652 14.6275 0.153413 16 1.76481 16V14ZM10.3032 14H1.76481V16H10.3032V14ZM11.0656 13.176C11.1001 13.6204 10.7489 14 10.3032 14V16C11.9146 16 13.1845 14.6275 13.0596 13.0209L11.0656 13.176ZM10.5166 6.11718L11.0656 13.176L13.0596 13.0209L12.5105 5.96209L10.5166 6.11718ZM9.75415 5.41177C10.1535 5.41177 10.4856 5.71905 10.5166 6.11718L12.5105 5.96209C12.3986 4.52268 11.1979 3.41177 9.75415 3.41177V5.41177ZM2.31383 5.41177H9.75415V3.41177H2.31383V5.41177Z" fill="#1C2A39" mask="url(#path-1-inside-1_403_7123)"/>
<mask id="path-3-inside-2_403_7123" fill="white">
<path fill-rule="evenodd" clip-rule="evenodd" d="M6.9164 0.882353H5.1517C4.17708 0.882353 3.38699 1.67244 3.38699 2.64706V4.41176H8.68111V2.64706C8.68111 1.67244 7.89102 0.882353 6.9164 0.882353ZM5.1517 0C3.68977 0 2.50464 1.18513 2.50464 2.64706V5.29412H9.56346V2.64706C9.56346 1.18513 8.37833 0 6.9164 0H5.1517Z"/>
</mask>
<path fill-rule="evenodd" clip-rule="evenodd" d="M6.9164 0.882353H5.1517C4.17708 0.882353 3.38699 1.67244 3.38699 2.64706V4.41176H8.68111V2.64706C8.68111 1.67244 7.89102 0.882353 6.9164 0.882353ZM5.1517 0C3.68977 0 2.50464 1.18513 2.50464 2.64706V5.29412H9.56346V2.64706C9.56346 1.18513 8.37833 0 6.9164 0H5.1517Z" fill="#1C2A39"/>
<path d="M3.38699 4.41176H2.38699V5.41176H3.38699V4.41176ZM8.68111 4.41176V5.41176H9.68111V4.41176H8.68111ZM2.50464 5.29412H1.50464V6.29412H2.50464V5.29412ZM9.56346 5.29412V6.29412H10.5635V5.29412H9.56346ZM5.1517 1.88235H6.9164V-0.117647H5.1517V1.88235ZM4.38699 2.64706C4.38699 2.22472 4.72936 1.88235 5.1517 1.88235V-0.117647C3.62479 -0.117647 2.38699 1.12015 2.38699 2.64706H4.38699ZM4.38699 4.41176V2.64706H2.38699V4.41176H4.38699ZM8.68111 3.41176H3.38699V5.41176H8.68111V3.41176ZM7.68111 2.64706V4.41176H9.68111V2.64706H7.68111ZM6.9164 1.88235C7.33874 1.88235 7.68111 2.22472 7.68111 2.64706H9.68111C9.68111 1.12015 8.44331 -0.117647 6.9164 -0.117647V1.88235ZM3.50464 2.64706C3.50464 1.73741 4.24205 1 5.1517 1V-1C3.13748 -1 1.50464 0.632844 1.50464 2.64706H3.50464ZM6.9164 1C7.82605 1 8.56346 1.73741 8.56346 2.64706H10.5635C10.5635 0.632844 8.93062 -1 6.9164 -1V1ZM5.1517 1H6.9164V-1H5.1517V1ZM3.50464 5.29412V2.64706H1.50464V5.29412H3.50464ZM9.56346 4.29412H2.50464V6.29412H9.56346V4.29412ZM8.56346 2.64706V5.29412H10.5635V2.64706H8.56346Z" fill="#1C2A39" mask="url(#path-3-inside-2_403_7123)"/>
</svg>
