<svg width="12" height="15" viewBox="0 0 12 15" fill="none" xmlns="http://www.w3.org/2000/svg">
<mask id="path-1-inside-1_402_7123" fill="white">
<path fill-rule="evenodd" clip-rule="evenodd" d="M6 7C7.65685 7 9 5.65685 9 4C9 2.34315 7.65685 1 6 1C4.34315 1 3 2.34315 3 4C3 5.65685 4.34315 7 6 7ZM6 8C8.20914 8 10 6.20914 10 4C10 1.79086 8.20914 0 6 0C3.79086 0 2 1.79086 2 4C2 6.20914 3.79086 8 6 8Z"/>
</mask>
<path fill-rule="evenodd" clip-rule="evenodd" d="M6 7C7.65685 7 9 5.65685 9 4C9 2.34315 7.65685 1 6 1C4.34315 1 3 2.34315 3 4C3 5.65685 4.34315 7 6 7ZM6 8C8.20914 8 10 6.20914 10 4C10 1.79086 8.20914 0 6 0C3.79086 0 2 1.79086 2 4C2 6.20914 3.79086 8 6 8Z" fill="#1C2A39"/>
<path d="M8 4C8 5.10457 7.10457 6 6 6V8C8.20914 8 10 6.20914 10 4H8ZM6 2C7.10457 2 8 2.89543 8 4H10C10 1.79086 8.20914 0 6 0V2ZM4 4C4 2.89543 4.89543 2 6 2V0C3.79086 0 2 1.79086 2 4H4ZM6 6C4.89543 6 4 5.10457 4 4H2C2 6.20914 3.79086 8 6 8V6ZM9 4C9 5.65685 7.65685 7 6 7V9C8.76142 9 11 6.76142 11 4H9ZM6 1C7.65685 1 9 2.34315 9 4H11C11 1.23858 8.76142 -1 6 -1V1ZM3 4C3 2.34315 4.34315 1 6 1V-1C3.23858 -1 1 1.23858 1 4H3ZM6 7C4.34315 7 3 5.65685 3 4H1C1 6.76142 3.23858 9 6 9V7Z" fill="#1C2A39" mask="url(#path-1-inside-1_402_7123)"/>
<mask id="path-3-inside-2_402_7123" fill="white">
<path fill-rule="evenodd" clip-rule="evenodd" d="M8 10H4C2.34315 10 1 11.3431 1 13V14H11V13C11 11.3431 9.65685 10 8 10ZM4 9C1.79086 9 0 10.7909 0 13V15H12V13C12 10.7909 10.2091 9 8 9H4Z"/>
</mask>
<path fill-rule="evenodd" clip-rule="evenodd" d="M8 10H4C2.34315 10 1 11.3431 1 13V14H11V13C11 11.3431 9.65685 10 8 10ZM4 9C1.79086 9 0 10.7909 0 13V15H12V13C12 10.7909 10.2091 9 8 9H4Z" fill="#1C2A39"/>
<path d="M1 14H0V15H1V14ZM11 14V15H12V14H11ZM0 15H-1V16H0V15ZM12 15V16H13V15H12ZM4 11H8V9H4V11ZM2 13C2 11.8954 2.89543 11 4 11V9C1.79086 9 0 10.7909 0 13H2ZM2 14V13H0V14H2ZM11 13H1V15H11V13ZM10 13V14H12V13H10ZM8 11C9.10457 11 10 11.8954 10 13H12C12 10.7909 10.2091 9 8 9V11ZM1 13C1 11.3431 2.34315 10 4 10V8C1.23858 8 -1 10.2386 -1 13H1ZM8 10C9.65685 10 11 11.3431 11 13H13C13 10.2386 10.7614 8 8 8V10ZM4 10H8V8H4V10ZM1 15V13H-1V15H1ZM12 14H0V16H12V14ZM11 13V15H13V13H11Z" fill="#1C2A39" mask="url(#path-3-inside-2_402_7123)"/>
</svg>
