<svg width="15" height="15" viewBox="0 0 15 15" fill="none" xmlns="http://www.w3.org/2000/svg">
<mask id="path-1-inside-1_403_7120" fill="white">
<path fill-rule="evenodd" clip-rule="evenodd" d="M6.5 12C9.53757 12 12 9.53757 12 6.5C12 3.46243 9.53757 1 6.5 1C3.46243 1 1 3.46243 1 6.5C1 9.53757 3.46243 12 6.5 12ZM6.5 13C10.0899 13 13 10.0899 13 6.5C13 2.91015 10.0899 0 6.5 0C2.91015 0 0 2.91015 0 6.5C0 10.0899 2.91015 13 6.5 13Z"/>
</mask>
<path fill-rule="evenodd" clip-rule="evenodd" d="M6.5 12C9.53757 12 12 9.53757 12 6.5C12 3.46243 9.53757 1 6.5 1C3.46243 1 1 3.46243 1 6.5C1 9.53757 3.46243 12 6.5 12ZM6.5 13C10.0899 13 13 10.0899 13 6.5C13 2.91015 10.0899 0 6.5 0C2.91015 0 0 2.91015 0 6.5C0 10.0899 2.91015 13 6.5 13Z" fill="#1C2A39"/>
<path d="M11 6.5C11 8.98528 8.98528 11 6.5 11V13C10.0899 13 13 10.0899 13 6.5H11ZM6.5 2C8.98528 2 11 4.01472 11 6.5H13C13 2.91015 10.0899 0 6.5 0V2ZM2 6.5C2 4.01472 4.01472 2 6.5 2V0C2.91015 0 0 2.91015 0 6.5H2ZM6.5 11C4.01472 11 2 8.98528 2 6.5H0C0 10.0899 2.91015 13 6.5 13V11ZM12 6.5C12 9.53757 9.53757 12 6.5 12V14C10.6421 14 14 10.6421 14 6.5H12ZM6.5 1C9.53757 1 12 3.46243 12 6.5H14C14 2.35786 10.6421 -1 6.5 -1V1ZM1 6.5C1 3.46243 3.46243 1 6.5 1V-1C2.35786 -1 -1 2.35786 -1 6.5H1ZM6.5 12C3.46243 12 1 9.53757 1 6.5H-1C-1 10.6421 2.35786 14 6.5 14V12Z" fill="#1C2A39" mask="url(#path-1-inside-1_403_7120)"/>
<path fill-rule="evenodd" clip-rule="evenodd" d="M11 9.99992L15 13.9999L14.2929 14.707L10.2929 10.707L11 9.99992Z" fill="#1C2A39"/>
</svg>
